<svg width="87" height="85" viewBox="0 0 87 85" fill="none" xmlns="http://www.w3.org/2000/svg">
<path fill-rule="evenodd" clip-rule="evenodd" d="M12.0789 76.5032L5.09766 0H81.8099L74.8212 76.4912L43.4067 85L12.0789 76.5032Z" fill="#E44D26"/>
<path fill-rule="evenodd" clip-rule="evenodd" d="M43.4538 78.4961L68.8381 71.6204L74.8103 6.25525H43.4538V78.4961Z" fill="#F16529"/>
<path d="M30.7457 34.6292H43.4538V44.0119H21.9627L19.3726 15.6382H43.4538V25.0211H29.868L30.7457 34.6292Z" fill="#EBEBEB"/>
<path d="M43.4116 59.0083L43.4538 58.9973V68.7594L43.4096 68.7713L23.7374 63.4358L22.392 48.7034H32.0323L32.7161 56.1867L43.4116 59.0083Z" fill="#EBEBEB"/>
<path d="M43.4205 15.6382H67.4777L66.6177 25.0211H43.4205V15.6382Z" fill="white"/>
<path d="M43.4205 44.0119V34.6292H65.744L65.5096 37.1486L63.1083 63.4357L43.4205 68.7668V59.0051L54.1315 56.1806L55.2464 44.0119H43.4205Z" fill="white"/>
</svg>
